<?xml version="1.0" encoding="UTF-8" standalone="no"?>
<!DOCTYPE svg PUBLIC "-//W3C//DTD SVG 1.1//EN" "http://www.w3.org/Graphics/SVG/1.1/DTD/svg11.dtd">
<svg width="100%" height="100%" viewBox="0 0 614 138" version="1.1" xmlns="http://www.w3.org/2000/svg" xmlns:xlink="http://www.w3.org/1999/xlink" xml:space="preserve" xmlns:serif="http://www.serif.com/" style="fill-rule:evenodd;clip-rule:evenodd;stroke-linejoin:round;stroke-miterlimit:2;">
    <g transform="matrix(1,0,0,1,-173.031,-471.414)">
        <g transform="matrix(1,0,0,1,-965.473,0)">
            <g transform="matrix(1.09646,0,0,1.09646,640.625,150.94)">
                <path d="M620.288,381.733C618.041,381.733 616.301,381.153 615.069,379.994C613.837,378.834 613.22,377.239 613.22,375.209L613.22,332.804C613.22,330.701 613.818,329.089 615.014,327.965C616.211,326.841 617.896,326.28 620.071,326.28C622.245,326.28 623.949,326.86 625.181,328.019C626.413,329.179 627.029,330.774 627.029,332.804L627.029,335.957C632.176,329.505 639.208,326.28 648.124,326.28C655.083,326.28 660.574,328.472 664.597,332.858C668.62,337.244 670.631,343.206 670.631,350.745L670.631,375.209C670.631,377.239 669.979,378.834 668.674,379.994C667.369,381.153 665.63,381.733 663.455,381.733C661.208,381.733 659.468,381.153 658.236,379.994C657.003,378.834 656.387,377.239 656.387,375.209L656.387,350.745C656.387,346.613 655.372,343.387 653.343,341.067C651.313,338.748 648.486,337.588 644.862,337.588C639.353,337.588 635.076,339.201 632.031,342.426C628.987,345.652 627.464,350.165 627.464,355.964L627.464,375.209C627.464,377.239 626.812,378.834 625.507,379.994C624.202,381.153 622.463,381.733 620.288,381.733Z" style="fill:white;fill-rule:nonzero;"/>
                <path d="M709.775,381.733C703.469,381.733 697.869,380.592 692.976,378.308C688.083,376.025 684.259,372.781 681.505,368.577C678.75,364.372 677.373,359.516 677.373,354.007C677.373,348.497 678.75,343.641 681.505,339.436C684.259,335.232 688.083,331.988 692.976,329.705C697.869,327.421 703.469,326.28 709.775,326.28C716.082,326.28 721.681,327.421 726.574,329.705C731.467,331.988 735.291,335.232 738.046,339.436C740.8,343.641 742.177,348.497 742.177,354.007C742.177,359.516 740.8,364.372 738.046,368.577C735.291,372.781 731.467,376.025 726.574,378.308C721.681,380.592 716.082,381.733 709.775,381.733ZM709.775,370.425C715.357,370.425 719.76,368.975 722.986,366.076C726.212,363.176 727.825,359.153 727.825,354.007C727.825,348.86 726.212,344.837 722.986,341.937C719.76,339.038 715.357,337.588 709.775,337.588C704.193,337.588 699.79,339.038 696.564,341.937C693.338,344.837 691.725,348.86 691.725,354.007C691.725,359.153 693.338,363.176 696.564,366.076C699.79,368.975 704.193,370.425 709.775,370.425Z" style="fill:white;fill-rule:nonzero;"/>
                <path d="M758.161,381.733C755.914,381.733 754.174,381.153 752.942,379.994C751.71,378.834 751.093,377.239 751.093,375.209L751.093,304.642C751.093,302.612 751.71,301.017 752.942,299.858C754.174,298.698 755.914,298.118 758.161,298.118C760.336,298.118 762.075,298.698 763.38,299.858C764.685,301.017 765.337,302.612 765.337,304.642L765.446,334.761C767.983,332.006 771.028,329.904 774.58,328.454C778.132,327.005 781.901,326.28 785.888,326.28C794.877,326.28 801.908,328.726 806.982,333.619C812.056,338.512 814.593,345.308 814.593,354.007C814.593,362.705 812.038,369.501 806.928,374.394C801.817,379.287 794.695,381.733 785.562,381.733C781.43,381.733 777.805,381.063 774.688,379.722C771.571,378.381 768.454,376.152 765.337,373.035L765.337,375.209C765.337,377.239 764.685,378.834 763.38,379.994C762.075,381.153 760.336,381.733 758.161,381.733ZM783.387,370.425C788.679,370.425 792.811,368.975 795.783,366.076C798.755,363.176 800.241,359.153 800.241,354.007C800.241,348.86 798.755,344.837 795.783,341.937C792.811,339.038 788.679,337.588 783.387,337.588C777.733,337.588 773.311,339.038 770.122,341.937C766.932,344.837 765.337,348.86 765.337,354.007C765.337,359.153 766.932,363.176 770.122,366.076C773.311,368.975 777.733,370.425 783.387,370.425Z" style="fill:white;fill-rule:nonzero;"/>
                <path d="M853.194,381.733C846.887,381.733 841.287,380.592 836.394,378.308C831.501,376.025 827.678,372.781 824.923,368.577C822.168,364.372 820.791,359.516 820.791,354.007C820.791,348.497 822.168,343.641 824.923,339.436C827.678,335.232 831.501,331.988 836.394,329.705C841.287,327.421 846.887,326.28 853.194,326.28C859.5,326.28 865.1,327.421 869.993,329.705C874.886,331.988 878.709,335.232 881.464,339.436C884.219,343.641 885.596,348.497 885.596,354.007C885.596,359.516 884.219,364.372 881.464,368.577C878.709,372.781 874.886,376.025 869.993,378.308C865.1,380.592 859.5,381.733 853.194,381.733ZM853.194,370.425C858.775,370.425 863.179,368.975 866.405,366.076C869.63,363.176 871.243,359.153 871.243,354.007C871.243,348.86 869.63,344.837 866.405,341.937C863.179,339.038 858.775,337.588 853.194,337.588C847.612,337.588 843.208,339.038 839.982,341.937C836.757,344.837 835.144,348.86 835.144,354.007C835.144,359.153 836.757,363.176 839.982,366.076C843.208,368.975 847.612,370.425 853.194,370.425Z" style="fill:white;fill-rule:nonzero;"/>
                <path d="M923.109,381.733C916.802,381.733 911.202,380.592 906.309,378.308C901.416,376.025 897.593,372.781 894.838,368.577C892.084,364.372 890.706,359.516 890.706,354.007C890.706,348.497 892.084,343.641 894.838,339.436C897.593,335.232 901.416,331.988 906.309,329.705C911.202,327.421 916.802,326.28 923.109,326.28C929.415,326.28 935.015,327.421 939.908,329.705C944.801,331.988 948.625,335.232 951.379,339.436C954.134,343.641 955.511,348.497 955.511,354.007C955.511,359.516 954.134,364.372 951.379,368.577C948.625,372.781 944.801,376.025 939.908,378.308C935.015,380.592 929.415,381.733 923.109,381.733ZM923.109,370.425C928.69,370.425 933.094,368.975 936.32,366.076C939.545,363.176 941.158,359.153 941.158,354.007C941.158,348.86 939.545,344.837 936.32,341.937C933.094,339.038 928.69,337.588 923.109,337.588C917.527,337.588 913.123,339.038 909.898,341.937C906.672,344.837 905.059,348.86 905.059,354.007C905.059,359.153 906.672,363.176 909.898,366.076C913.123,368.975 917.527,370.425 923.109,370.425Z" style="fill:white;fill-rule:nonzero;"/>
                <path d="M1012.27,371.621C1013.43,372.781 1014.01,374.158 1014.01,375.753C1014.01,377.493 1013.28,378.979 1011.84,380.211C1010.68,381.153 1009.37,381.625 1007.92,381.625C1005.96,381.625 1004.15,380.791 1002.48,379.124L986.826,362.379L971.06,379.124C969.393,380.791 967.58,381.625 965.623,381.625C964.173,381.625 962.869,381.153 961.709,380.211C960.259,378.979 959.534,377.493 959.534,375.753C959.534,374.158 960.114,372.781 961.274,371.621L978.345,353.463L962.687,336.827C961.31,335.304 960.621,333.746 960.621,332.151C960.621,330.412 961.346,328.926 962.796,327.693C963.811,326.751 965.079,326.28 966.602,326.28C968.559,326.28 970.48,327.222 972.365,329.107L986.826,344.438L1001.18,329.107C1003.06,327.222 1004.98,326.28 1006.94,326.28C1008.46,326.28 1009.73,326.751 1010.75,327.693C1012.2,328.926 1012.92,330.412 1012.92,332.151C1012.92,333.746 1012.23,335.304 1010.86,336.827L995.198,353.463L1012.27,371.621Z" style="fill:white;fill-rule:nonzero;"/>
            </g>
            <g transform="matrix(1.25999,0,0,1.25999,1048.59,116.596)">
                <g>
                    <g>
                        <g>
                            <path d="M133.636,305.655L178.642,322.749L178.516,348.632C178.503,351.222 177.369,353.869 174.792,355.867L133.913,387.578C129.052,391.35 121.223,391.446 116.515,387.793L75.08,355.651C72.776,353.864 71.653,351.497 71.629,349.104L71.357,322.152L116.237,305.871C122.02,303.773 128.065,303.54 133.636,305.655Z" style="fill:white;"/>
                            <path d="M133.913,361.633C129.052,365.403 121.223,365.5 116.515,361.848L79.556,333.177L79.728,348.945C79.804,349.053 79.966,349.19 80.045,349.252L121.479,381.395C123.347,382.843 127.109,382.606 128.949,381.179L169.828,349.467C170.093,349.262 170.415,348.97 170.416,348.604L170.497,333.253L133.913,361.633Z"/>
                            <g transform="matrix(0.687718,0,0,0.687718,-329.937,-45.7163)">
                                <path d="M674.074,479.844L734.321,526.581C741.168,531.893 740.986,540.725 733.918,546.208L674.476,592.32C667.408,597.802 656.024,597.943 649.178,592.633L588.928,545.894C582.083,540.584 582.264,531.752 589.333,526.27L648.774,480.158C655.844,474.675 667.226,474.533 674.074,479.844ZM634.674,527.543L643.172,536.041L634.674,527.543ZM630.638,530.291L640.912,540.565L630.638,530.291Z" style="fill:white;"/>
                            </g>
                            <g transform="matrix(-0.301376,-0.301376,0.443206,-0.443206,95.3333,613.165)">
                                <path d="M417.69,345.412L462.802,340.911C475.174,339.677 486.243,348.738 487.478,361.11C488.712,373.483 479.652,384.552 467.279,385.787L392.559,393.242L391.44,382.023L466.16,374.568C472.347,373.95 476.876,368.417 476.259,362.23C475.642,356.044 470.108,351.513 463.921,352.13L417.321,356.78L425.921,363.947L422.079,368.557L401.314,351.25L422.079,333.943L425.921,338.553L417.69,345.412Z"/>
                            </g>
                            <path d="M173.695,337.264C174.479,336.657 175.606,336.802 176.212,337.586C176.818,338.371 176.674,339.498 175.889,340.104L135.01,371.816C132.272,373.939 128.728,375.021 125.213,375.064C121.671,375.108 118.125,374.098 115.424,372.037L83.815,347.927C83.026,347.325 82.876,346.197 83.477,345.409C84.079,344.621 85.206,344.47 85.994,345.071L117.604,369.184C119.654,370.746 122.398,371.514 125.171,371.479C127.94,371.445 130.707,370.611 132.817,368.975L173.695,337.264Z" style="fill:white;"/>
                        </g>
                    </g>
                </g>
            </g>
        </g>
    </g>
</svg>
